# xmcd CD database file
#
# Track frame offsets:
#	150
#	11883
#	23929
#	37372
#	48468
#	60269
#	73664
#	86166
#	98562
#	110398
#	122799
#	135971
#	149882
#	163311
#	177143
#	188522
#	200462
#	215303
#
# Disc length: 3068 seconds
#
# Revision: 2
# Processed by: cddbd v1.5.2PL0 Copyright (c) Steve Scherf et al.
# Submitted via: CDex 1.51
#
DISCID=070bfa12
DTITLE=Count Basie - Vol.09 - Cheek to Cheek
DYEAR=1900
DGENRE=Jazz
TTITLE0=Seventh Avenue Express
TTITLE1=Don't You Want A man Like Me
TTITLE2=Blue And Sentimental
TTITLE3=Mr. Robert's Roost
TTITLE4=Sophisticated Swing
TTITLE5=Guest In The Nest
TTITLE6=Your Red Wagon
TTITLE7=Money Is Honey
TTITLE8=Just A Minute
TTITLE9=Baby don't Be Mad Of Me
TTITLE10=I've Only Myself To Blame
TTITLE11=Robbin's Nest
TTITLE12=Hey, Pretty Baby
TTITLE13=It's Monday Everyday
TTITLE14=Bye Bye Baby
TTITLE15=Ready, Set, Go !
TTITLE16=Brand New Dolly
TTITLE17=Cheeek To Cheek
EXTD=
EXTT0=
EXTT1=
EXTT2=
EXTT3=
EXTT4=
EXTT5=
EXTT6=
EXTT7=
EXTT8=
EXTT9=
EXTT10=
EXTT11=
EXTT12=
EXTT13=
EXTT14=
EXTT15=
EXTT16=
EXTT17=
PLAYORDER=
